<svg width="215" height="178" viewBox="0 0 215 178" fill="none" xmlns="http://www.w3.org/2000/svg">
<g opacity="0.05">
<path d="M188.469 147.766C194.191 139.299 190.525 130.113 183.935 123.342C180.688 120.008 177.217 116.6 178.956 111.683C182.614 101.335 192.464 92.5812 190.175 80.6603C188.1 69.8507 179.931 63.1567 169.051 62.0467C163.959 61.5296 158.566 61.7053 153.571 60.6261C146.367 59.0692 143.717 53.434 140.756 47.3219C135 35.4421 116.792 31.7766 106.873 40.7893C102.714 44.5688 98.8161 49.0748 92.5593 48.4738C82.3674 47.4938 72.1882 39.2399 62.1573 46.146C57.3108 49.4842 55.9111 53.4548 55.0093 59.0077C54.1987 64 52.7165 68.1434 46.9599 68.4901C44.096 68.6627 41.5713 69.7243 39.1689 71.2206C30.6201 76.5452 32.5901 87.3516 38.0555 94.0425C43.152 100.283 51.5694 104.835 45.7284 114.069C41.1705 121.273 33.7743 127.435 34.8783 136.964C35.6771 143.818 41.1626 149.727 48.1546 150.327C58.2802 151.196 66.2141 141.922 76.0896 143.661C80.0672 144.362 82.59 146.936 83.0607 150.924C83.8684 157.763 82.2561 166.386 88.0566 171.637C91.7445 175.34 96.0981 177.519 101.371 177.68C111.624 177.994 117.426 165.117 123.951 159.222C131.504 152.397 140.157 150.4 149.91 153.671C159.652 156.937 167.822 158.851 178.026 155.458C182.341 154.024 185.925 151.535 188.472 147.766L188.469 147.766Z" fill="#F2261A"/>
<path d="M168.982 47.1469C171.488 42.0589 168.638 35.5935 165.37 33.3375C162.042 31.0393 157.298 32.1615 154.192 29.8816C151.661 28.0234 149.052 28.6729 147.395 31.3112C145.632 34.1162 145.814 37.3715 148.169 40.3391C152.435 45.716 162.888 59.5393 168.982 47.1469Z" fill="#F2261A"/>
<path d="M24.817 73.0007C27.6867 69.9564 29.4341 66.3004 30.1766 62.2162C30.837 58.5725 28.7218 54.8293 25.4276 53.5085C13.9986 48.9217 9.71743 67.897 16.0488 74.4957C18.4256 76.9747 22.7011 75.246 24.817 73.0007Z" fill="#F2261A"/>
<path d="M204.682 153.677C205.16 150.388 202.996 147.259 199.365 146.404C195.487 145.49 189.421 149.264 189.554 153.608C189.67 157.382 184.054 160.846 187.226 164.634C193.503 172.13 203.843 159.466 204.682 153.677Z" fill="#F2261A"/>
<path d="M130.323 18.9372C129.203 11.7612 121.317 11.0695 116.917 15.5179C114.989 17.4672 114.466 19.9444 115.375 22.0639C117.452 26.9075 131.249 24.8576 130.323 18.9372Z" fill="#F2261A"/>
<path d="M9.3186 61.0135C9.71458 58.8805 8.86766 57.1866 7.21233 55.9037C5.82486 54.8286 3.21801 55.0331 1.85284 56.3471C0.782055 57.4058 0.308635 58.8697 0.794615 60.479C1.20362 61.8341 1.80653 63.1459 2.44548 64.4156C2.99099 65.4987 3.898 65.838 5.05847 65.6289C6.92694 65.2897 8.91965 63.1736 9.3186 61.0135Z" fill="#F2261A"/>
<path d="M128.046 6.29163C128.503 5.7148 128.79 5.01751 128.818 4.19512C128.883 2.14892 126.954 0.23124 124.892 0.134148C123.13 0.0509326 121.548 0.646005 120.271 1.80524C119.032 2.93295 118.644 4.43752 119.178 6.06192C119.687 7.6066 120.934 8.23199 122.457 8.36455C124.34 8.52909 126.809 7.85084 128.046 6.29163Z" fill="#F2261A"/>
<path d="M214.691 160.88C215.041 159.355 214.523 158.054 213.375 157.044C211.763 155.624 209.559 156.781 208.129 158.355C207.512 159.032 207.039 159.791 206.822 160.451C206.253 162.182 207.166 163.882 208.754 164.326C211.093 164.983 214.152 163.23 214.691 160.88Z" fill="#F2261A"/>
</g>
<g clip-path="url(#clip0_2419_17227)">
<path opacity="0.4" d="M92.1408 115.25C82.9314 115.25 75.4597 107.691 75.4597 98.375C75.4597 91.0156 80.1165 84.7578 86.6036 82.4492C86.592 82.1328 86.5804 81.8164 86.5804 81.5C86.5804 71.1406 94.8746 62.75 105.115 62.75C111.984 62.75 117.973 66.5234 121.182 72.1484C122.943 70.9531 125.074 70.25 127.356 70.25C133.496 70.25 138.477 75.2891 138.477 81.5C138.477 82.9297 138.211 84.2891 137.736 85.5547C144.501 86.9375 149.598 92.9961 149.598 100.25C149.598 108.535 142.96 115.25 134.77 115.25H92.1408ZM103.146 83.2578C102.057 84.3594 102.057 86.1406 103.146 87.2305L108.59 92.7383L103.146 98.2461C102.057 99.3477 102.057 101.129 103.146 102.219C104.235 103.309 105.995 103.32 107.073 102.219L112.517 96.7109L117.962 102.219C119.051 103.32 120.811 103.32 121.889 102.219C122.966 101.117 122.977 99.3359 121.889 98.2461L116.444 92.7383L121.889 87.2305C122.977 86.1289 122.977 84.3477 121.889 83.2578C120.8 82.168 119.039 82.1563 117.962 83.2578L112.517 88.7656L107.073 83.2578C105.984 82.1563 104.223 82.1563 103.146 83.2578Z" fill="#F2261A"/>
<path d="M107.084 83.2578C105.995 82.1563 104.234 82.1563 103.157 83.2578C102.08 84.3594 102.068 86.1406 103.157 87.2305L108.602 92.7383L103.157 98.2461C102.068 99.3477 102.068 101.129 103.157 102.219C104.246 103.309 106.007 103.32 107.084 102.219L112.529 96.7109L117.973 102.219C119.062 103.32 120.823 103.32 121.9 102.219C122.977 101.117 122.989 99.3359 121.9 98.2461L116.456 92.7383L121.9 87.2305C122.989 86.1289 122.989 84.3477 121.9 83.2578C120.811 82.168 119.05 82.1563 117.973 83.2578L112.529 88.7656L107.084 83.2578Z" fill="#F2261A"/>
</g>
<defs>
<clipPath id="clip0_2419_17227">
<rect width="79.0805" height="80" fill="white" transform="translate(75.4597 59)"/>
</clipPath>
</defs>
</svg>
